 <svg  version="1.0" xmlns="http://www.w3.org/2000/svg"  width="192.000000pt" height="192.000000pt" viewBox="0 0 192.000000 192.000000"  preserveAspectRatio="xMidYMid meet">  <g transform="translate(0.000000,192.000000) scale(0.050000,-0.050000)" fill="#ffffff" stroke="none"> <path d="M1360 3585 l0 -195 -680 6 c-374 3 -680 2 -680 -2 0 -5 397 -696 883 -1536 485 -841 915 -1589 955 -1663 83 -155 85 -156 126 -70 25 54 608 1066 1739 3023 75 130 137 241 137 245 0 4 -486 6 -1080 3 l-1080 -6 0 195 0 195 -160 0 -160 0 0 -195z m0 -1245 l0 -960 160 0 160 0 0 625 c0 807 21 875 268 875 200 0 215 -67 208 -898 l-6 -602 166 0 166 0 -6 746 -6 745 -51 100 c-147 285 -545 274 -735 -21 -23 -36 -25 -33 -15 28 6 37 11 124 11 195 l0 127 992 0 c786 0 990 -5 983 -25 -11 -28 -1682 -2928 -1714 -2975 -27 -38 -1 -78 -344 520 -155 270 -537 932 -849 1473 -313 541 -568 988 -568 995 0 7 266 12 590 12 l590 0 0 -960z"/> </g> </svg> 